<svg width="908" height="832" viewBox="0 0 908 832" fill="none" xmlns="http://www.w3.org/2000/svg">
<path d="M530.888 403.873C538.673 403.873 543.466 408.289 543.466 415.868L543.422 416.857H521.654C521.926 421.859 524.867 425.015 530.748 425.015C535.725 425.015 538.673 422.803 539.621 419.061C539.665 418.973 539.665 418.929 539.665 418.834H539.709V418.79H543.194C541.973 424.605 537.445 427.944 530.748 427.944C522.831 427.944 518.17 423.433 518.17 415.956C518.17 408.479 523.147 403.873 530.888 403.873ZM530.748 406.714C525.183 406.714 522.191 409.556 521.787 414.199H539.842C539.393 409.6 536.401 406.714 530.748 406.714Z" fill="white"/>
<path d="M559.323 403.873C563.263 403.917 566.696 405.403 568.24 408.384V404.825H571.496V424.978C571.496 427.366 571.136 429.394 570.452 431.02C569.004 434.535 565.792 436.205 559.911 436.205C553.214 436.205 549.229 434.315 548.457 429.709H551.758C552.574 432.148 554.926 433.363 559.903 433.363C566.056 433.363 568.232 430.837 568.232 426.106V422.093C566.152 425.205 563.16 426.824 558.815 426.824C551.662 426.824 547.274 422.723 547.274 415.37C547.274 408.018 552.023 403.829 559.315 403.873H559.323ZM568.284 416.183V414.696C568.284 409.827 565.659 406.714 559.778 406.714C554.346 406.714 550.773 409.6 550.773 415.37C550.773 421.141 554.529 423.938 559.278 423.938C565.255 423.938 568.284 420.65 568.284 416.183Z" fill="white"/>
<path d="M592.477 407.615H588.36V404.818H592.477V396.03H595.734V404.825H603.651V407.622H595.734V420.606C595.734 425.249 599.762 425.249 603.607 424.392L604.379 426.919C602.747 427.461 601.343 427.732 599.534 427.732C594.197 427.732 592.653 424.89 592.477 420.247V407.615Z" fill="white"/>
<path d="M505.805 424.209C504.033 424.209 502.6 422.781 502.6 421.016V395.803H499.064V427.366H517.56V424.209H505.798H505.805Z" fill="white"/>
<path d="M581.06 395.803L578.017 397.538L579.546 400.204L581.053 399.413V427.226H584.449V395.803H581.06Z" fill="white"/>
<path d="M577.186 397.97L574.51 399.464L576.113 402.02L578.715 400.636H578.723L577.186 397.97Z" fill="#4BEA83"/>
<g opacity="0.65" filter="url(#filter0_f_0_465)">
<rect x="443.8" y="308.8" width="214.4" height="214.4" rx="15" stroke="url(#paint0_linear_0_465)" stroke-width="2"/>
</g>
<rect x="443.8" y="308.8" width="214.4" height="214.4" rx="15" stroke="url(#paint1_linear_0_465)" stroke-width="2"/>
<g opacity="0.6">
<g opacity="0.65" filter="url(#filter1_f_0_465)">
<rect x="407.733" y="272.733" width="286.533" height="286.533" rx="15" stroke="url(#paint2_linear_0_465)" stroke-width="2"/>
</g>
<rect x="407.733" y="272.733" width="286.533" height="286.533" rx="15" stroke="url(#paint3_linear_0_465)" stroke-width="2"/>
</g>
<g opacity="0.5">
<g opacity="0.65" filter="url(#filter2_f_0_465)">
<rect x="371.667" y="236.667" width="358.667" height="358.667" rx="15" stroke="url(#paint4_linear_0_465)" stroke-width="2"/>
</g>
<rect x="371.667" y="236.667" width="358.667" height="358.667" rx="15" stroke="url(#paint5_linear_0_465)" stroke-width="2"/>
</g>
<g opacity="0.4">
<g opacity="0.65" filter="url(#filter3_f_0_465)">
<rect x="335.6" y="200.6" width="430.8" height="430.8" rx="15" stroke="url(#paint6_linear_0_465)" stroke-width="2"/>
</g>
<rect x="335.6" y="200.6" width="430.8" height="430.8" rx="15" stroke="url(#paint7_linear_0_465)" stroke-width="2"/>
</g>
<g opacity="0.3">
<g opacity="0.65" filter="url(#filter4_f_0_465)">
<rect x="299.533" y="164.533" width="502.933" height="502.933" rx="15" stroke="url(#paint8_linear_0_465)" stroke-width="2"/>
</g>
<rect x="299.533" y="164.533" width="502.933" height="502.933" rx="15" stroke="url(#paint9_linear_0_465)" stroke-width="2"/>
</g>
<g opacity="0.2">
<g opacity="0.65" filter="url(#filter5_f_0_465)">
<rect x="263.467" y="128.467" width="575.067" height="575.067" rx="15" stroke="url(#paint10_linear_0_465)" stroke-width="2"/>
</g>
<rect x="263.467" y="128.467" width="575.067" height="575.067" rx="15" stroke="url(#paint11_linear_0_465)" stroke-width="2"/>
</g>
<g opacity="0.1">
<g opacity="0.65" filter="url(#filter6_f_0_465)">
<rect x="227.4" y="92.4" width="647.2" height="647.2" rx="15" stroke="url(#paint12_linear_0_465)" stroke-width="2"/>
</g>
<rect x="227.4" y="92.4" width="647.2" height="647.2" rx="15" stroke="url(#paint13_linear_0_465)" stroke-width="2"/>
</g>
<g opacity="0.1">
<g opacity="0.65" filter="url(#filter7_f_0_465)">
<rect x="191.333" y="56.3333" width="719.333" height="719.333" rx="15" stroke="url(#paint14_linear_0_465)" stroke-width="2"/>
</g>
<rect x="191.333" y="56.3333" width="719.333" height="719.333" rx="15" stroke="url(#paint15_linear_0_465)" stroke-width="2"/>
</g>
<g opacity="0.1">
<g opacity="0.65" filter="url(#filter8_f_0_465)">
<rect x="155.267" y="20.2667" width="791.467" height="791.467" rx="15" stroke="url(#paint16_linear_0_465)" stroke-width="2"/>
</g>
<rect x="155.267" y="20.2667" width="791.467" height="791.467" rx="15" stroke="url(#paint17_linear_0_465)" stroke-width="2"/>
</g>
<g opacity="0.1">
<g opacity="0.65" filter="url(#filter9_f_0_465)">
<rect x="119.2" y="-15.8001" width="863.6" height="863.6" rx="15" stroke="url(#paint18_linear_0_465)" stroke-width="2"/>
</g>
<rect x="119.2" y="-15.8001" width="863.6" height="863.6" rx="15" stroke="url(#paint19_linear_0_465)" stroke-width="2"/>
</g>
<g opacity="0.1">
<g opacity="0.65" filter="url(#filter10_f_0_465)">
<rect x="83.1333" y="-51.8666" width="935.733" height="935.733" rx="15" stroke="url(#paint20_linear_0_465)" stroke-width="2"/>
</g>
<rect x="83.1333" y="-51.8666" width="935.733" height="935.733" rx="15" stroke="url(#paint21_linear_0_465)" stroke-width="2"/>
</g>
<g opacity="0.1">
<g opacity="0.65" filter="url(#filter11_f_0_465)">
<rect x="47.0667" y="-87.9334" width="1007.87" height="1007.87" rx="15" stroke="url(#paint22_linear_0_465)" stroke-width="2"/>
</g>
<rect x="47.0667" y="-87.9334" width="1007.87" height="1007.87" rx="15" stroke="url(#paint23_linear_0_465)" stroke-width="2"/>
</g>
<g opacity="0.05">
<g opacity="0.65" filter="url(#filter12_f_0_465)">
<rect x="11" y="-124" width="1080" height="1080" rx="15" stroke="url(#paint24_linear_0_465)" stroke-width="2"/>
</g>
<rect x="11" y="-124" width="1080" height="1080" rx="15" stroke="url(#paint25_linear_0_465)" stroke-width="2"/>
</g>
<defs>
<filter id="filter0_f_0_465" x="432.8" y="297.8" width="236.4" height="236.4" filterUnits="userSpaceOnUse" color-interpolation-filters="sRGB">
<feFlood flood-opacity="0" result="BackgroundImageFix"/>
<feBlend mode="normal" in="SourceGraphic" in2="BackgroundImageFix" result="shape"/>
<feGaussianBlur stdDeviation="5" result="effect1_foregroundBlur_0_465"/>
</filter>
<filter id="filter1_f_0_465" x="396.733" y="261.733" width="308.533" height="308.533" filterUnits="userSpaceOnUse" color-interpolation-filters="sRGB">
<feFlood flood-opacity="0" result="BackgroundImageFix"/>
<feBlend mode="normal" in="SourceGraphic" in2="BackgroundImageFix" result="shape"/>
<feGaussianBlur stdDeviation="5" result="effect1_foregroundBlur_0_465"/>
</filter>
<filter id="filter2_f_0_465" x="360.667" y="225.667" width="380.667" height="380.667" filterUnits="userSpaceOnUse" color-interpolation-filters="sRGB">
<feFlood flood-opacity="0" result="BackgroundImageFix"/>
<feBlend mode="normal" in="SourceGraphic" in2="BackgroundImageFix" result="shape"/>
<feGaussianBlur stdDeviation="5" result="effect1_foregroundBlur_0_465"/>
</filter>
<filter id="filter3_f_0_465" x="324.6" y="189.6" width="452.8" height="452.8" filterUnits="userSpaceOnUse" color-interpolation-filters="sRGB">
<feFlood flood-opacity="0" result="BackgroundImageFix"/>
<feBlend mode="normal" in="SourceGraphic" in2="BackgroundImageFix" result="shape"/>
<feGaussianBlur stdDeviation="5" result="effect1_foregroundBlur_0_465"/>
</filter>
<filter id="filter4_f_0_465" x="288.533" y="153.533" width="524.933" height="524.933" filterUnits="userSpaceOnUse" color-interpolation-filters="sRGB">
<feFlood flood-opacity="0" result="BackgroundImageFix"/>
<feBlend mode="normal" in="SourceGraphic" in2="BackgroundImageFix" result="shape"/>
<feGaussianBlur stdDeviation="5" result="effect1_foregroundBlur_0_465"/>
</filter>
<filter id="filter5_f_0_465" x="252.467" y="117.467" width="597.067" height="597.067" filterUnits="userSpaceOnUse" color-interpolation-filters="sRGB">
<feFlood flood-opacity="0" result="BackgroundImageFix"/>
<feBlend mode="normal" in="SourceGraphic" in2="BackgroundImageFix" result="shape"/>
<feGaussianBlur stdDeviation="5" result="effect1_foregroundBlur_0_465"/>
</filter>
<filter id="filter6_f_0_465" x="216.4" y="81.4" width="669.2" height="669.2" filterUnits="userSpaceOnUse" color-interpolation-filters="sRGB">
<feFlood flood-opacity="0" result="BackgroundImageFix"/>
<feBlend mode="normal" in="SourceGraphic" in2="BackgroundImageFix" result="shape"/>
<feGaussianBlur stdDeviation="5" result="effect1_foregroundBlur_0_465"/>
</filter>
<filter id="filter7_f_0_465" x="180.333" y="45.3333" width="741.333" height="741.333" filterUnits="userSpaceOnUse" color-interpolation-filters="sRGB">
<feFlood flood-opacity="0" result="BackgroundImageFix"/>
<feBlend mode="normal" in="SourceGraphic" in2="BackgroundImageFix" result="shape"/>
<feGaussianBlur stdDeviation="5" result="effect1_foregroundBlur_0_465"/>
</filter>
<filter id="filter8_f_0_465" x="144.267" y="9.26669" width="813.467" height="813.467" filterUnits="userSpaceOnUse" color-interpolation-filters="sRGB">
<feFlood flood-opacity="0" result="BackgroundImageFix"/>
<feBlend mode="normal" in="SourceGraphic" in2="BackgroundImageFix" result="shape"/>
<feGaussianBlur stdDeviation="5" result="effect1_foregroundBlur_0_465"/>
</filter>
<filter id="filter9_f_0_465" x="108.2" y="-26.8001" width="885.6" height="885.6" filterUnits="userSpaceOnUse" color-interpolation-filters="sRGB">
<feFlood flood-opacity="0" result="BackgroundImageFix"/>
<feBlend mode="normal" in="SourceGraphic" in2="BackgroundImageFix" result="shape"/>
<feGaussianBlur stdDeviation="5" result="effect1_foregroundBlur_0_465"/>
</filter>
<filter id="filter10_f_0_465" x="72.1333" y="-62.8666" width="957.733" height="957.733" filterUnits="userSpaceOnUse" color-interpolation-filters="sRGB">
<feFlood flood-opacity="0" result="BackgroundImageFix"/>
<feBlend mode="normal" in="SourceGraphic" in2="BackgroundImageFix" result="shape"/>
<feGaussianBlur stdDeviation="5" result="effect1_foregroundBlur_0_465"/>
</filter>
<filter id="filter11_f_0_465" x="36.0667" y="-98.9334" width="1029.87" height="1029.87" filterUnits="userSpaceOnUse" color-interpolation-filters="sRGB">
<feFlood flood-opacity="0" result="BackgroundImageFix"/>
<feBlend mode="normal" in="SourceGraphic" in2="BackgroundImageFix" result="shape"/>
<feGaussianBlur stdDeviation="5" result="effect1_foregroundBlur_0_465"/>
</filter>
<filter id="filter12_f_0_465" x="0" y="-135" width="1102" height="1102" filterUnits="userSpaceOnUse" color-interpolation-filters="sRGB">
<feFlood flood-opacity="0" result="BackgroundImageFix"/>
<feBlend mode="normal" in="SourceGraphic" in2="BackgroundImageFix" result="shape"/>
<feGaussianBlur stdDeviation="5" result="effect1_foregroundBlur_0_465"/>
</filter>
<linearGradient id="paint0_linear_0_465" x1="659.2" y1="415.274" x2="442.8" y2="415.274" gradientUnits="userSpaceOnUse">
<stop stop-color="white"/>
<stop offset="0.745" stop-color="#050505"/>
</linearGradient>
<linearGradient id="paint1_linear_0_465" x1="659.2" y1="415.274" x2="442.8" y2="415.274" gradientUnits="userSpaceOnUse">
<stop stop-color="white"/>
<stop offset="0.745" stop-color="#050505"/>
</linearGradient>
<linearGradient id="paint2_linear_0_465" x1="695.267" y1="415.032" x2="406.733" y2="415.032" gradientUnits="userSpaceOnUse">
<stop stop-color="white"/>
<stop offset="0.745" stop-color="#050505"/>
</linearGradient>
<linearGradient id="paint3_linear_0_465" x1="695.267" y1="415.032" x2="406.733" y2="415.032" gradientUnits="userSpaceOnUse">
<stop stop-color="white"/>
<stop offset="0.745" stop-color="#050505"/>
</linearGradient>
<linearGradient id="paint4_linear_0_465" x1="731.333" y1="414.79" x2="370.667" y2="414.79" gradientUnits="userSpaceOnUse">
<stop stop-color="white"/>
<stop offset="0.745" stop-color="#050505"/>
</linearGradient>
<linearGradient id="paint5_linear_0_465" x1="731.333" y1="414.79" x2="370.667" y2="414.79" gradientUnits="userSpaceOnUse">
<stop stop-color="white"/>
<stop offset="0.745" stop-color="#050505"/>
</linearGradient>
<linearGradient id="paint6_linear_0_465" x1="767.4" y1="414.548" x2="334.6" y2="414.548" gradientUnits="userSpaceOnUse">
<stop stop-color="white"/>
<stop offset="0.745" stop-color="#050505"/>
</linearGradient>
<linearGradient id="paint7_linear_0_465" x1="767.4" y1="414.548" x2="334.6" y2="414.548" gradientUnits="userSpaceOnUse">
<stop stop-color="white"/>
<stop offset="0.745" stop-color="#050505"/>
</linearGradient>
<linearGradient id="paint8_linear_0_465" x1="803.467" y1="414.306" x2="298.533" y2="414.306" gradientUnits="userSpaceOnUse">
<stop stop-color="white"/>
<stop offset="0.745" stop-color="#050505"/>
</linearGradient>
<linearGradient id="paint9_linear_0_465" x1="803.467" y1="414.306" x2="298.533" y2="414.306" gradientUnits="userSpaceOnUse">
<stop stop-color="white"/>
<stop offset="0.745" stop-color="#050505"/>
</linearGradient>
<linearGradient id="paint10_linear_0_465" x1="839.533" y1="414.063" x2="262.467" y2="414.063" gradientUnits="userSpaceOnUse">
<stop stop-color="white"/>
<stop offset="0.745" stop-color="#050505"/>
</linearGradient>
<linearGradient id="paint11_linear_0_465" x1="839.533" y1="414.063" x2="262.467" y2="414.063" gradientUnits="userSpaceOnUse">
<stop stop-color="white"/>
<stop offset="0.745" stop-color="#050505"/>
</linearGradient>
<linearGradient id="paint12_linear_0_465" x1="875.6" y1="413.821" x2="226.4" y2="413.821" gradientUnits="userSpaceOnUse">
<stop stop-color="white"/>
<stop offset="0.745" stop-color="#050505"/>
</linearGradient>
<linearGradient id="paint13_linear_0_465" x1="875.6" y1="413.821" x2="226.4" y2="413.821" gradientUnits="userSpaceOnUse">
<stop stop-color="white"/>
<stop offset="0.745" stop-color="#050505"/>
</linearGradient>
<linearGradient id="paint14_linear_0_465" x1="911.667" y1="413.579" x2="190.333" y2="413.579" gradientUnits="userSpaceOnUse">
<stop stop-color="white"/>
<stop offset="0.745" stop-color="#050505"/>
</linearGradient>
<linearGradient id="paint15_linear_0_465" x1="911.667" y1="413.579" x2="190.333" y2="413.579" gradientUnits="userSpaceOnUse">
<stop stop-color="white"/>
<stop offset="0.745" stop-color="#050505"/>
</linearGradient>
<linearGradient id="paint16_linear_0_465" x1="947.733" y1="413.337" x2="154.267" y2="413.337" gradientUnits="userSpaceOnUse">
<stop stop-color="white"/>
<stop offset="0.745" stop-color="#050505"/>
</linearGradient>
<linearGradient id="paint17_linear_0_465" x1="947.733" y1="413.337" x2="154.267" y2="413.337" gradientUnits="userSpaceOnUse">
<stop stop-color="white"/>
<stop offset="0.745" stop-color="#050505"/>
</linearGradient>
<linearGradient id="paint18_linear_0_465" x1="983.8" y1="413.095" x2="118.2" y2="413.095" gradientUnits="userSpaceOnUse">
<stop stop-color="white"/>
<stop offset="0.745" stop-color="#050505"/>
</linearGradient>
<linearGradient id="paint19_linear_0_465" x1="983.8" y1="413.095" x2="118.2" y2="413.095" gradientUnits="userSpaceOnUse">
<stop stop-color="white"/>
<stop offset="0.745" stop-color="#050505"/>
</linearGradient>
<linearGradient id="paint20_linear_0_465" x1="1019.87" y1="412.853" x2="82.1333" y2="412.853" gradientUnits="userSpaceOnUse">
<stop stop-color="white"/>
<stop offset="0.745" stop-color="#050505"/>
</linearGradient>
<linearGradient id="paint21_linear_0_465" x1="1019.87" y1="412.853" x2="82.1333" y2="412.853" gradientUnits="userSpaceOnUse">
<stop stop-color="white"/>
<stop offset="0.745" stop-color="#050505"/>
</linearGradient>
<linearGradient id="paint22_linear_0_465" x1="1055.93" y1="412.611" x2="46.0667" y2="412.611" gradientUnits="userSpaceOnUse">
<stop stop-color="white"/>
<stop offset="0.745" stop-color="#050505"/>
</linearGradient>
<linearGradient id="paint23_linear_0_465" x1="1055.93" y1="412.611" x2="46.0667" y2="412.611" gradientUnits="userSpaceOnUse">
<stop stop-color="white"/>
<stop offset="0.745" stop-color="#050505"/>
</linearGradient>
<linearGradient id="paint24_linear_0_465" x1="1092" y1="412.369" x2="10" y2="412.369" gradientUnits="userSpaceOnUse">
<stop stop-color="white"/>
<stop offset="0.745" stop-color="#050505"/>
</linearGradient>
<linearGradient id="paint25_linear_0_465" x1="1092" y1="412.369" x2="10" y2="412.369" gradientUnits="userSpaceOnUse">
<stop stop-color="white"/>
<stop offset="0.745" stop-color="#050505"/>
</linearGradient>
</defs>
</svg>
